<?xml version="1.0" encoding="utf-8"?>
<!-- Generator: Adobe Illustrator 27.0.0, SVG Export Plug-In . SVG Version: 6.00 Build 0)  -->
<svg version="1.1" id="Calque_1" xmlns="http://www.w3.org/2000/svg" xmlns:xlink="http://www.w3.org/1999/xlink" x="0px" y="0px"
	 viewBox="0 0 277 77" style="enable-background:new 0 0 277 77;" xml:space="preserve">
<style type="text/css">
	.st0{fill:#003C7A;}
	.st1{enable-background:new    ;}
	.st2{fill:#FFFFFF;}
	.st3{fill:#17CAE9;}
	.st4{fill:none;stroke:#FFFFFF;stroke-width:2;stroke-linecap:round;stroke-linejoin:round;}
</style>
<g id="Group_360" transform="translate(-1511.798 -727.488)">
	<g id="Group_347">
		<rect id="Rectangle_276" x="1511.8" y="727.5" class="st0" width="200" height="77"/>
	</g>
	<g class="st1">
		<path class="st2" d="M1530.6,773.1v-14.4h6.1c1.5,0,2.6,0.1,3.3,0.4c0.7,0.3,1.2,0.7,1.7,1.4s0.6,1.4,0.6,2.3c0,1.1-0.3,2-0.9,2.7
			c-0.6,0.7-1.6,1.1-2.8,1.3c0.6,0.4,1.1,0.8,1.5,1.2c0.4,0.4,1,1.2,1.6,2.3l1.7,2.8h-3.5l-2.1-3.1c-0.7-1.1-1.2-1.8-1.5-2.1
			c-0.3-0.3-0.6-0.5-0.9-0.6s-0.8-0.2-1.5-0.2h-0.6v6L1530.6,773.1L1530.6,773.1z M1533.5,764.8h2.1c1.4,0,2.3-0.1,2.6-0.2
			c0.3-0.1,0.6-0.3,0.8-0.6c0.2-0.3,0.3-0.6,0.3-1.1s-0.1-0.9-0.4-1.2s-0.6-0.5-1.1-0.6c-0.2,0-0.9,0-2.1,0h-2.3v3.7H1533.5z"/>
		<path class="st2" d="M1549.5,757.9l1.3-2.9h3.1l-2.7,2.9H1549.5z M1545.8,773.1v-14.4h10.6v2.4h-7.7v3.2h7.2v2.4h-7.2v3.9h8v2.4
			L1545.8,773.1L1545.8,773.1z"/>
		<path class="st2" d="M1559.2,768.4l2.8-0.3c0.2,0.9,0.5,1.6,1,2.1c0.5,0.4,1.2,0.7,2.1,0.7s1.6-0.2,2.1-0.6s0.7-0.9,0.7-1.4
			c0-0.3-0.1-0.6-0.3-0.9c-0.2-0.2-0.5-0.4-1-0.6c-0.3-0.1-1.1-0.3-2.3-0.6c-1.5-0.4-2.6-0.9-3.3-1.4c-0.9-0.8-1.3-1.7-1.3-2.9
			c0-0.7,0.2-1.4,0.6-2c0.4-0.6,1-1.1,1.8-1.5c0.8-0.3,1.7-0.5,2.8-0.5c1.8,0,3.2,0.4,4.1,1.2c0.9,0.8,1.4,1.8,1.4,3.2l-2.9,0.1
			c-0.1-0.7-0.4-1.3-0.8-1.6c-0.4-0.3-1-0.5-1.8-0.5c-0.8,0-1.5,0.2-2,0.5c-0.3,0.2-0.5,0.5-0.5,0.9c0,0.3,0.1,0.6,0.4,0.9
			c0.4,0.3,1.2,0.6,2.7,1s2.4,0.7,3.1,1s1.2,0.8,1.6,1.5c0.4,0.6,0.6,1.4,0.6,2.3c0,0.8-0.2,1.6-0.7,2.3c-0.5,0.7-1.1,1.2-1.9,1.6
			c-0.8,0.3-1.9,0.5-3.1,0.5c-1.8,0-3.2-0.4-4.2-1.3C1559.9,771.2,1559.4,770,1559.2,768.4z"/>
		<path class="st2" d="M1574,773.1v-14.4h10.6v2.4h-7.7v3.2h7.2v2.4h-7.2v3.9h8v2.4L1574,773.1L1574,773.1z"/>
		<path class="st2" d="M1588.2,773.1v-14.4h6.1c1.5,0,2.6,0.1,3.3,0.4c0.7,0.3,1.2,0.7,1.7,1.4s0.6,1.4,0.6,2.3c0,1.1-0.3,2-0.9,2.7
			c-0.6,0.7-1.6,1.1-2.8,1.3c0.6,0.4,1.1,0.8,1.5,1.2c0.4,0.4,1,1.2,1.6,2.3l1.7,2.8h-3.5l-2.1-3.1c-0.7-1.1-1.2-1.8-1.5-2.1
			c-0.3-0.3-0.6-0.5-0.9-0.6s-0.8-0.2-1.5-0.2h-0.6v6L1588.2,773.1L1588.2,773.1z M1591,764.8h2.1c1.4,0,2.3-0.1,2.6-0.2
			c0.3-0.1,0.6-0.3,0.8-0.6c0.2-0.3,0.3-0.6,0.3-1.1s-0.1-0.9-0.4-1.2s-0.6-0.5-1.1-0.6c-0.2,0-0.9,0-2.1,0h-2.3v3.7H1591z"/>
		<path class="st2" d="M1606.7,773.1l-5.1-14.3h3.1l3.6,10.6l3.5-10.6h3.1l-5.1,14.3H1606.7z"/>
		<path class="st2" d="M1628.6,773.1h-3.1l-1.2-3.3h-5.7l-1.2,3.3h-3.1l5.6-14.3h3.1L1628.6,773.1z M1623.2,767.4l-2-5.3l-1.9,5.3
			H1623.2z"/>
		<path class="st2" d="M1632.6,773.1v-11.9h-4.2v-2.4h11.4v2.4h-4.2v11.9H1632.6z"/>
		<path class="st2" d="M1642.3,773.1v-14.4h2.9V773L1642.3,773.1L1642.3,773.1z"/>
		<path class="st2" d="M1648.1,766c0-1.5,0.2-2.7,0.7-3.7c0.3-0.7,0.8-1.4,1.3-2s1.2-1,1.9-1.3c0.9-0.4,1.9-0.6,3.1-0.6
			c2.1,0,3.8,0.7,5.1,2c1.3,1.3,1.9,3.1,1.9,5.5c0,2.3-0.6,4.1-1.9,5.4s-2.9,2-5,2s-3.8-0.6-5.1-1.9
			C1648.8,770.1,1648.1,768.3,1648.1,766z M1651.1,765.9c0,1.6,0.4,2.8,1.1,3.7c0.7,0.8,1.7,1.3,2.9,1.3c1.2,0,2.1-0.4,2.8-1.2
			c0.7-0.8,1.1-2.1,1.1-3.7s-0.4-2.9-1.1-3.7s-1.7-1.2-2.9-1.2c-1.2,0-2.2,0.4-2.9,1.2C1651.4,763.1,1651.1,764.2,1651.1,765.9z"/>
		<path class="st2" d="M1665.1,773.1v-14.4h2.8l5.9,9.6v-9.6h2.7V773h-2.9l-5.8-9.3v9.3L1665.1,773.1L1665.1,773.1z"/>
	</g>
	<g id="Group_359">
		<g id="Group_348">
			<rect id="Rectangle_277" x="1711.8" y="727.5" class="st3" width="77" height="77"/>
		</g>
		<g id="Group_358">
			<g id="Group_357">
				<g id="Group_353">
					<g id="Group_352">
						<g id="Group_351">
							<g id="Group_350">
								<g id="Group_349">
									<path id="Rectangle_278" class="st4" d="M1764.8,750.5v30.9c0,1.2-1,2.2-2.2,2.2h-27.3c-1.2,0-2.2-1-2.2-2.2v-30.9
										c0-1.2,1-2.2,2.2-2.2h27.3C1763.8,748.3,1764.8,749.3,1764.8,750.5z"/>
								</g>
								<line id="Line_40" class="st4" x1="1757.7" y1="750.5" x2="1757.7" y2="781.4"/>
								<path id="Path_581" class="st4" d="M1747.8,773.6h4.6v4.6"/>
								<path id="Path_582" class="st4" d="M1747.8,763.7h4.6v4.6"/>
								<path id="Path_583" class="st4" d="M1747.8,753.8h4.6v4.6"/>
								<path id="Path_584" class="st4" d="M1738.5,763.7h4.6v4.6"/>
								<path id="Path_585" class="st4" d="M1738.5,773.6h4.6v4.6"/>
								<path id="Path_586" class="st4" d="M1738.5,753.8h4.6v4.6"/>
							</g>
						</g>
					</g>
				</g>
				<g id="Group_356">
					<g id="Group_354">
						<line id="Line_41" class="st4" x1="1762.1" y1="773.6" x2="1767.5" y2="773.6"/>
					</g>
					<g id="Group_355">
						<line id="Line_42" class="st4" x1="1767.5" y1="758.4" x2="1762.1" y2="758.4"/>
					</g>
				</g>
			</g>
		</g>
	</g>
</g>
</svg>
